<svg width="18" height="15" viewBox="0 0 18 15" fill="none" xmlns="http://www.w3.org/2000/svg">
<g clip-path="url(#clip0_350_97)">
<path d="M13.154 11.7598C13.3434 11.4672 13.4543 11.116 13.4543 10.7414C13.4543 10.3667 13.3434 10.0133 13.154 9.72051H3.39014L3.3904 14.9999H5.40326V11.7597H13.1541L13.154 11.7598Z" fill="#414042"/>
<path d="M13.7964 3.2403H4.49408V5.27949H13.7987C14.4019 5.27949 14.9518 5.52769 15.347 5.9304C15.7445 6.33311 15.9895 6.88556 15.9895 7.49894C15.9895 7.92505 15.8716 8.323 15.666 8.66015C15.9826 9.28529 16.1582 9.99463 16.1582 10.7415C16.1582 10.8398 16.1558 10.9358 16.1466 11.0319C17.265 10.2662 18 8.96929 18 7.49894C18 5.14838 16.1166 3.2403 13.7964 3.2403Z" fill="#414042"/>
<path d="M11.6057 6.48047H4.20484C2.99417 6.48047 2.01286 5.48633 2.01286 4.25983C2.01286 3.03333 2.99417 2.03918 4.20484 2.03918H11.6057V0H4.20484C1.88253 0 0 1.90715 0 4.25983C0 6.61251 1.88253 8.51966 4.20484 8.51966H11.6057H11.608C12.8187 8.51966 13.8 9.51381 13.8 10.7403C13.8 11.9668 12.8187 12.9609 11.608 12.9609H6.54332V15.0001H11.6058C13.9281 15.0001 15.8106 13.093 15.8106 10.7403C15.8106 8.38762 13.9281 6.48047 11.6058 6.48047H11.6057Z" fill="#D0D0D0"/>
</g>
<defs>
<clipPath id="clip0_350_97">
<rect width="18" height="15" fill="white"/>
</clipPath>
</defs>
</svg>
